<?xml version="1.0" standalone="no"?>
<svg viewBox="0 0 200 200" xmlns="http://www.w3.org/2000/svg">
  <path fill="#9EF0F0" d="M34.3,-55.1C47.7,-51.6,64.2,-49.1,71.4,-40.1C78.6,-31.1,76.4,-15.5,72.2,-2.4C68,10.7,61.8,21.4,57.7,35.6C53.5,49.9,51.4,67.6,42.1,77.1C32.9,86.7,16.4,87.9,4,81C-8.5,74.2,-17,59.2,-24.6,48.7C-32.1,38.2,-38.7,32.2,-47.9,24.8C-57.1,17.5,-68.9,8.7,-72.1,-1.9C-75.4,-12.5,-70,-24.9,-61.8,-33.9C-53.5,-42.8,-42.3,-48.3,-31.5,-53.4C-20.7,-58.5,-10.3,-63.3,0,-63.4C10.4,-63.4,20.8,-58.7,34.3,-55.1Z" transform="translate(100 100)" />
</svg>
